Coordinates
version=1
nRows=8
nColumns=40
inDegrees=yes

Units are S.I. units (second, meters, Newtons, ...)
Angles are in degrees.

endheader
time	pelvis_tilt	pelvis_list	pelvis_rotation	pelvis_tx	pelvis_ty	pelvis_tz	hip_flexion_r	hip_adduction_r	hip_rotation_r	knee_angle_r	knee_angle_r_beta	ankle_angle_r	subtalar_angle_r	mtp_angle_r	hip_flexion_l	hip_adduction_l	hip_rotation_l	knee_angle_l	knee_angle_l_beta	ankle_angle_l	subtalar_angle_l	mtp_angle_l	lumbar_extension	lumbar_bending	lumbar_rotation	arm_flex_r	arm_add_r	arm_rot_r	elbow_flex_r	pro_sup_r	wrist_flex_r	wrist_dev_r	arm_flex_l	arm_add_l	arm_rot_l	elbow_flex_l	pro_sup_l	wrist_flex_l	wrist_dev_l
     44.70000000	     -5.74608608	     -4.50852877	    -13.55351486	      0.98819716	      0.92684718	      0.53307207	     18.98286587	      4.52587930	     -3.08068277	     19.49022250	     19.49022250	      7.55080050	      4.35707860	     -2.23714230	      0.19124545	     -8.79398386	    -17.06217784	     24.40473993	     24.40473993	     17.94626106	    -14.59081033	      2.75341642	    -10.23301339	     10.04307315	      1.26738698	    -10.16578570	    -11.96005588	    -19.44807096	     31.42887592	     45.77861208	      0.00000000	      0.00000000	     36.51688063	    -22.30824860	    -14.12222507	     76.93440069	     48.48872707	      0.00000000	      0.00000000
     44.71914286	     -5.77786074	     -4.57033211	    -13.16878991	      0.98835041	      0.92770225	      0.53815757	     18.23241246	      4.79001588	     -3.47851884	     18.94184971	     18.94184971	      7.84072080	      4.58867515	     -2.10486555	      0.94853330	     -9.63508658	    -16.67916343	     26.48679612	     26.48679612	     17.06414706	    -14.79465483	      1.96056252	    -10.12988180	      9.99097469	      1.21781382	     -9.69612711	    -12.22887072	    -19.51365606	     31.69703904	     45.78104550	      0.00000000	      0.00000000	     35.53450586	    -21.72795551	    -14.02237785	     76.27782065	     48.45974396	      0.00000000	      0.00000000
     44.73828571	     -5.81582226	     -4.60142564	    -12.76917289	      0.98829954	      0.92836349	      0.54325147	     17.56686235	      5.03331581	     -3.84661919	     18.49437904	     18.49437904	      8.15414726	      4.74983781	     -1.97664022	      1.85355054	    -10.49391950	    -16.23133294	     28.74371828	     28.74371828	     15.87344314	    -15.00037667	      0.61336236	     -9.99544393	      9.84454297	      1.11367037	     -9.20378327	    -12.50801547	    -19.57369500	     32.06617645	     45.78130142	      0.00000000	      0.00000000	     34.42232724	    -21.11956921	    -13.96150055	     75.31526184	     48.42485755	      0.00000000	      0.00000000
     44.75742857	     -5.76058672	     -4.67269293	    -12.34415799	      0.98810317	      0.92891978	      0.54827406	     16.88660384	      5.30261495	     -4.18223541	     18.20069147	     18.20069147	      8.49396174	      4.79668702	     -1.93789215	      2.83980540	    -11.37500573	    -15.55758459	     31.27536450	     31.27536450	     14.62664559	    -15.40749553	     -0.43719220	     -9.98221193	      9.69439632	      1.09870147	     -8.62908308	    -12.81707973	    -19.60046638	     32.42284984	     45.77799796	      0.00000000	      0.00000000	     33.23832653	    -20.47652936	    -13.79635741	     74.39495583	     48.38495980	      0.00000000	      0.00000000
     44.77657143	     -5.75069861	     -4.72338540	    -11.89459923	      0.98763754	      0.92919225	      0.55318384	     16.37149586	      5.56225649	     -4.51847145	     18.07611828	     18.07611828	      8.89398908	      4.69704720	     -1.94048925	      4.08457685	    -12.25179990	    -14.69579404	     34.06031711	     34.06031711	     13.18407050	    -15.87959054	     -1.56331102	     -9.95011791	      9.51578646	      0.98286437	     -7.99224113	    -13.14264571	    -19.61029527	     32.82857761	     45.77190590	      0.00000000	      0.00000000	     31.89206720	    -19.83722267	    -13.58303903	     73.18133060	     48.33549169	      0.00000000	      0.00000000
     44.79571429	     -5.63424667	     -4.66313486	    -11.40525613	      0.98712651	      0.92927458	      0.55788880	     15.99677176	      5.68064811	     -4.65796212	     18.37824845	     18.37824845	      9.47514335	      4.28133894	     -1.62258110	      5.23816085	    -12.98090545	    -13.90043653	     36.67209755	     36.67209755	     10.57670439	    -16.82025806	     -5.20338515	     -9.84704454	      9.18656179	      0.88177935	     -7.40857816	    -13.49471958	    -19.35701194	     33.51235260	     45.75439327	      0.00000000	      0.00000000	     30.91860543	    -19.19041229	    -13.24349324	     70.24010368	     48.23566874	      0.00000000	      0.00000000
     44.81485714	     -5.46871754	     -4.74630564	    -10.87004844	      0.98642433	      0.92920011	      0.56235945	     15.53816182	      5.89979658	     -5.02090025	     18.63074269	     18.63074269	      9.95900663	      4.06357903	     -1.72196340	      6.68216082	    -13.81577792	    -12.78547962	     39.89550121	     39.89550121	      9.19200218	    -17.35691624	     -5.54148091	     -9.97927520	      8.98542218	      0.91506485	     -6.67599975	    -13.88090251	    -19.36404940	     33.85882465	     45.75090316	      0.00000000	      0.00000000	     29.30869322	    -18.32003617	    -12.80520700	     69.14533601	     48.17121560	      0.00000000	      0.00000000
     44.83400000	     -5.26046480	     -4.82677417	    -10.27695070	      0.98554443	      0.92877292	      0.56650500	     15.26637217	      6.07814302	     -5.38872030	     19.27747887	     19.27747887	     10.51794177	      3.64849125	     -1.86737983	      8.26954565	    -14.59808458	    -11.59226685	     43.28402131	     43.28402131	      7.89281250	    -17.93271188	     -5.54680700	    -10.13056781	      8.82328402	      0.75660099	     -5.70395025	    -14.27872507	    -19.36597498	     34.26903156	     45.74572015	      0.00000000	      0.00000000	     27.59044314	    -17.59738723	    -12.32766386	     67.51697802	     48.09495398	      0.00000000	      0.00000000
